<svg width="13" height="11" viewBox="0 0 13 11" fill="none" xmlns="http://www.w3.org/2000/svg">
<path d="M0 0.962962C0 0.431132 0.431133 0 0.962963 0H4.58344C4.77355 0 4.95941 0.0562737 5.11759 0.161729L6.25741 0.921604C6.41559 1.02706 6.60145 1.08333 6.79156 1.08333H12.037C12.5689 1.08333 13 1.51447 13 2.0463V9.87037C13 10.4022 12.5689 10.8333 12.037 10.8333H0.962963C0.431133 10.8333 0 10.4022 0 9.87037V0.962962Z" fill="#F9B919"/>
<path d="M4.875 3.25L6.21795 1.90705C6.39855 1.72645 6.64348 1.625 6.89887 1.625H12.037C12.5689 1.625 13 2.05613 13 2.58796V9.3287C13 9.86053 12.5689 10.2917 12.037 10.2917H0.962963C0.431133 10.2917 0 9.86053 0 9.3287V4.21296C0 3.68113 0.431133 3.25 0.962963 3.25H4.875Z" fill="#FFEDB9"/>
<path d="M5.14583 3.79175L6.48879 2.44879C6.66938 2.2682 6.91431 2.16675 7.16971 2.16675H12.037C12.5689 2.16675 13 2.59788 13 3.12971V9.32879C13 9.86061 12.5689 10.2917 12.037 10.2917H0.962963C0.431133 10.2917 0 9.86062 0 9.32879V4.75471C0 4.22288 0.431133 3.79175 0.962963 3.79175H5.14583Z" fill="url(#paint0_linear_84_4802)"/>
<defs>
<linearGradient id="paint0_linear_84_4802" x1="6.5" y1="1.62508" x2="13" y2="10.2917" gradientUnits="userSpaceOnUse">
<stop stop-color="#FFE79F"/>
<stop offset="1" stop-color="#FFC937"/>
</linearGradient>
</defs>
</svg>
